<svg width="27" height="41" viewBox="0 0 27 41" fill="none" xmlns="http://www.w3.org/2000/svg">
<path d="M6.47669 21.2708L10.1333 17.7769C11.1019 16.9675 9.18933 20.0045 9.97669 21C10.7644 21.9958 13.4454 20.4613 12.4767 21.2708L10.4767 23.2769L14.4767 26.7769L18.9767 30.7769C19.9453 31.5864 27.2644 39.5045 26.4767 40.5C26.0301 41.0652 21.3575 37.659 19.9767 36.5C15.4767 32.723 16.3955 33.6273 15.9767 33.2769L11.9767 29.7769L5.95338 24.8769C5.42576 24.4356 5.47669 23.7734 5.47669 23.0738C5.47669 22.3743 5.94907 21.7124 6.47669 21.2708Z" fill="white"/>
<path d="M2.39536 1.00002C3.59527 1.00991 4.5096 5.26597 4.49998 6.49994L3.99999 35.4999C3.99037 36.7339 3 41 1.99998 41C1.5 41 2 41 1.5 41C0.728549 40.6519 -0.00704106 36.4216 -1.10477e-05 35.4999L0.499984 6.49994C0.509604 5.26597 1.19508 0.990127 2.39536 1.00002Z" fill="white"/>
<path d="M16.2824 11.0133L17.826 9.72298L12.3278 5.12677C11.3591 4.3173 3.21264 1.99545 4 0.999983C4.78736 0.00375038 14.2111 0.711245 15.1798 1.52071L22.8347 7.91995C23.3627 8.36158 23.6691 9.02345 23.6691 9.72298C23.6691 10.4225 23.3627 11.0848 22.8347 11.526L19.1343 14.6193C18.7151 14.9697 17.2824 16.4208 16.5 17C15.7176 17.5792 11.4466 20.0649 11 19.5C10.2126 18.5041 15.3141 11.8231 16.2824 11.0133Z" fill="#7B4AE2"/>
</svg>
